PathFileType	4	(X/Y/Z)	./resultDataOpenSim/trcMotMarkerGrf/sub06/qtm-05-04.trc
DataRate	CameraRate	NumFrames	NumMarkers	Units	OrigDataRate	OrigDataStartFrame	OrigNumFrames
250.000000	250.000000	12	24	m	250.000000	326	521
Frame#	Time	L.Toe.Tip			R.Toe.Tip			L.Ankle.Lat			R.Ankle.Lat			L.Ankle.Med			R.Ankle.Med			L.Heel			R.Heel			L.Knee.Lat			R.Knee.Lat			L.Knee.Med			R.Knee.Med			L.Thigh.Upper			R.Thigh.Upper			L.ASIS			R.ASIS			V.Sacral			L.Acromium			R.Acromium			C7			L.Elbow			R.Elbow			L.Wrist.Lat			R.Wrist.Lat
		X1	Y1	Z1	X2	Y2	Z2	X3	Y3	Z3	X4	Y4	Z4	X5	Y5	Z5	X6	Y6	Z6	X7	Y7	Z7	X8	Y8	Z8	X9	Y9	Z9	X10	Y10	Z10	X11	Y11	Z11	X12	Y12	Z12	X13	Y13	Z13	X14	Y14	Z14	X15	Y15	Z15	X16	Y16	Z16	X17	Y17	Z17	X18	Y18	Z18	X19	Y19	Z19	X20	Y20	Z20	X21	Y21	Z21	X22	Y22	Z22	X23	Y23	Z23	X24	Y24	Z24

326	1.3	0.21728322	0.02095584	-0.034150745	0.92080246	0.035794237	0.10363801	0.23245238	0.15233585	-0.067219073	0.78463299	0.059296303	0.12635732	0.25831016	0.15481538	0.014863493	0.80553133	0.080735854	0.039682472	0.1945986	0.21086039	-0.014009439	0.72956319	0.037876296	0.066652349	0.56747572	0.33278196	-0.10718189	0.85596953	0.43486054	0.16760002	0.57265518	0.31863682	0.012997077	0.82069591	0.42363894	0.045688008	0.59067923	0.72184616	-0.10303615	0.66208507	0.75594382	0.23370862	0.67797769	0.77122438	-0.073117473	0.73035346	0.79878515	0.15971598	0.52022075	0.86550271	0.077811708	0.69174943	1.270265	-0.10709152	0.68328956	1.2410684	0.25312623	0.607876	1.3004876	0.071819359	0.72813268	0.94406426	-0.17311724	0.53675644	0.96067785	0.30165606	0.95137424	0.85624822	-0.10369099	0.61333879	0.7388463	0.36693527
327	1.304	0.22728889	0.027704663	-0.035140098	0.92069166	0.035782156	0.10388485	0.24279561	0.15903243	-0.067663988	0.7844715	0.059221298	0.1265099	0.26892954	0.1610763	0.014275294	0.80561024	0.080889147	0.039931611	0.20531477	0.21771243	-0.014262663	0.72953553	0.037934528	0.066675516	0.57994573	0.33459172	-0.10849616	0.85837907	0.43424439	0.16878883	0.5850673	0.32057179	0.011909559	0.82334826	0.42332387	0.046748531	0.59736192	0.72410437	-0.10248091	0.66744362	0.75754532	0.23427797	0.68415378	0.77386477	-0.072501998	0.73638418	0.80068165	0.16079799	0.52656055	0.86762665	0.078144729	0.69692552	1.2727165	-0.1069662	0.68900263	1.2433999	0.25331655	0.61336556	1.3027844	0.072163589	0.73220002	0.94648913	-0.17231676	0.5447474	0.96163157	0.30265579	0.9541966	0.85443127	-0.10532473	0.62518061	0.74067652	0.36649804
328	1.308	0.23759287	0.034314996	-0.036044332	0.92058307	0.035763314	0.10415696	0.25340364	0.1656174	-0.068104892	0.78433329	0.059112325	0.12665911	0.27969356	0.1672917	0.013719756	0.80569	0.081051678	0.040196816	0.21613193	0.22443103	-0.014556218	0.72951007	0.038003583	0.066689303	0.59237712	0.33657142	-0.10971924	0.86060794	0.43374312	0.16997938	0.59740984	0.32261424	0.010892002	0.82588615	0.42316109	0.047792171	0.60403497	0.72642262	-0.10194052	0.67283179	0.75927762	0.23505945	0.6903076	0.77645433	-0.07203092	0.74226489	0.80258819	0.16189592	0.53285325	0.86978379	0.078496648	0.70204437	1.2752246	-0.10685061	0.69465877	1.2458072	0.25350403	0.61880845	1.3051082	0.072484381	0.73617388	0.94896712	-0.17160559	0.55273121	0.96266755	0.30362718	0.9568433	0.85269166	-0.10702192	0.6370447	0.74266899	0.36599906
329	1.312	0.24813896	0.040776078	-0.036856971	0.92047985	0.035741551	0.10443355	0.26425414	0.17204646	-0.068547399	0.78420078	0.058994772	0.12680219	0.29057192	0.17343989	0.01320773	0.80576096	0.081217968	0.040463483	0.22709565	0.23099698	-0.014895461	0.72948627	0.038082824	0.066632864	0.60476127	0.33869892	-0.1108591	0.86258609	0.43335984	0.17109367	0.60971811	0.32476139	0.0099342719	0.82830758	0.42316017	0.04879901	0.61078243	0.72880038	-0.10151065	0.67815978	0.76108287	0.23594705	0.69661746	0.77902337	-0.071796643	0.74782904	0.80444148	0.1629129	0.53906811	0.8719755	0.078843453	0.70712362	1.277774	-0.10673491	0.7002659	1.2482777	0.25368861	0.62421275	1.3074573	0.072780046	0.74005907	0.95150507	-0.17094096	0.56072169	0.96378901	0.30455092	0.95932094	0.85103694	-0.10877906	0.64892742	0.74482223	0.36544544
330	1.316	0.25891058	0.047081311	-0.037592734	0.92038059	0.035724058	0.10469485	0.27532301	0.17829336	-0.068987848	0.7840584	0.058893346	0.12693778	0.30157159	0.17951207	0.012713664	0.80581918	0.081382393	0.040707658	0.23824571	0.23739646	-0.015282231	0.72946149	0.038174273	0.06645347	0.61710833	0.34095123	-0.11193264	0.86431016	0.43307888	0.17208188	0.62198938	0.32699504	0.0090287883	0.83063055	0.42332068	0.049747554	0.61767507	0.73122572	-0.10129015	0.68321657	0.76285071	0.23672304	0.70306919	0.78161032	-0.07175652	0.75314083	0.80626618	0.16386766	0.54522195	0.8741987	0.079161473	0.71217488	1.2803559	-0.1066187	0.70583053	1.2508037	0.25386846	0.62958252	1.3098334	0.0730523	0.74386485	0.95408916	-0.17030306	0.56871097	0.9649945	0.30541119	0.96163625	0.84947904	-0.11059105	0.66082009	0.74713017	0.36484078
331	1.32	0.26991264	0.053216063	-0.038280581	0.92027807	0.035716399	0.10493438	0.2865933	0.18434442	-0.069426013	0.78390556	0.058817777	0.12706405	0.31267	0.18549416	0.012226174	0.80586361	0.081543432	0.040920353	0.24959361	0.24361168	-0.015710355	0.72943147	0.038275212	0.066187082	0.62943825	0.34331658	-0.1129541	0.86591391	0.43288632	0.17303632	0.63416456	0.32928645	0.0081930141	0.83286954	0.42362871	0.05062485	0.62468518	0.73368745	-0.10131058	0.68791087	0.76453014	0.23727371	0.70958878	0.78423124	-0.071791557	0.75841668	0.80815363	0.16486591	0.55132504	0.87645584	0.079424562	0.71720389	1.2829685	-0.10651339	0.71135647	1.2533795	0.2540408	0.63492387	1.312242	0.073305154	0.74759589	0.9566953	-0.16967685	0.57667385	0.96628591	0.30620617	0.96379142	0.84802974	-0.11245476	0.67271114	0.74959188	0.36418667
332	1.324	0.28114286	0.059157172	-0.038953817	0.92016591	0.035718825	0.10515732	0.29804574	0.19019125	-0.069867408	0.78375787	0.058763391	0.12717994	0.32388894	0.19133308	0.011736579	0.80588763	0.081702799	0.041114091	0.26112642	0.24961901	-0.016170339	0.72939644	0.038374326	0.065947706	0.64177581	0.34579153	-0.11393055	0.8675454	0.4327675	0.17409947	0.64619973	0.33161468	0.0074569868	0.83500539	0.42405739	0.051433429	0.6316925	0.73620673	-0.10146171	0.69241129	0.76618582	0.23771141	0.7161054	0.78687641	-0.071747291	0.76378996	0.81016566	0.16597422	0.55736062	0.87875442	0.07961035	0.72222608	1.2856123	-0.10643447	0.71684898	1.2559998	0.25420456	0.64024506	1.3146896	0.073543152	0.75125067	0.95930221	-0.16904697	0.58456894	0.96766394	0.3069505	0.96578264	0.84669246	-0.11437444	0.68459234	0.75221227	0.36348883
333	1.328	0.29259192	0.064882756	-0.039639276	0.92004639	0.035727172	0.10537017	0.30965626	0.19582541	-0.070316254	0.78363738	0.058720432	0.12728537	0.33530352	0.19695255	0.011236038	0.80588664	0.081861599	0.041306493	0.27281375	0.25539876	-0.01664781	0.72936663	0.038461137	0.065807826	0.65412691	0.3483698	-0.11485501	0.86916555	0.43268859	0.17524734	0.65819369	0.33399059	0.0068094137	0.83698513	0.42457394	0.052189639	0.63859286	0.73883343	-0.1014695	0.69697007	0.76791706	0.23822507	0.72257264	0.78952868	-0.071523396	0.76924447	0.81229625	0.16717306	0.56330152	0.88109691	0.07972044	0.72726418	1.2882843	-0.10639125	0.72231579	1.2586603	0.2543614	0.64555565	1.3171741	0.073771292	0.75482666	0.96190397	-0.16840896	0.59235422	0.96912006	0.30766865	0.96760938	0.84546085	-0.11635588	0.69644519	0.75498751	0.36275092
334	1.332	0.30424382	0.070376702	-0.040323683	0.91992978	0.035736031	0.10557236	0.3214059	0.20123961	-0.070771402	0.78355412	0.058678974	0.12738156	0.34694799	0.20230842	0.01072726	0.80586806	0.082020556	0.041506836	0.28461419	0.26094149	-0.017123317	0.72935562	0.038535014	0.06574592	0.66647387	0.35104218	-0.11571292	0.87059829	0.432609	0.17628431	0.67043054	0.33644819	0.006157985	0.83877655	0.42514338	0.05290513	0.64538163	0.74158385	-0.10107603	0.70165499	0.76974621	0.23885471	0.72899099	0.79218423	-0.071138798	0.7746841	0.81449254	0.16839033	0.56914458	0.88347491	0.079779757	0.73232248	1.2909734	-0.10637138	0.7277629	1.261356	0.25451344	0.65086037	1.3196826	0.073995259	0.75832196	0.96451433	-0.16777311	0.60003283	0.97064275	0.30838404	0.96928689	0.84432614	-0.118395	0.70823287	0.75789913	0.36196636
335	1.336	0.31607406	0.075627789	-0.040950881	0.91982685	0.035742113	0.10575676	0.33328247	0.20642794	-0.071225647	0.78349008	0.058630789	0.12747439	0.35878934	0.20740521	0.010217168	0.80584609	0.082182581	0.041715769	0.29648589	0.26624334	-0.017579433	0.72936303	0.038604857	0.065716026	0.67881846	0.3538068	-0.11651025	0.87177321	0.43251427	0.1770588	0.68318122	0.33899118	0.0053916706	0.84041975	0.42572663	0.053563849	0.65214195	0.74441128	-0.10036037	0.70635347	0.77162075	0.23948884	0.73540664	0.79485402	-0.070676344	0.78004432	0.8167096	0.16957141	0.57494131	0.88587246	0.07981158	0.73738032	1.2936649	-0.10634113	0.73319236	1.2640795	0.25466058	0.65615127	1.3222044	0.074219165	0.76173472	0.96715927	-0.16715132	0.60766617	0.97222496	0.30911219	0.97083918	0.84328488	-0.12047928	0.719937	0.76093484	0.36113088
336	1.34	0.32806736	0.080629459	-0.041479725	0.91974321	0.035747088	0.1059155	0.34527512	0.21138161	-0.071670228	0.7834125	0.05857646	0.12757213	0.37077445	0.21226818	0.0097081375	0.8058329	0.082351365	0.041927126	0.30840605	0.27129216	-0.01801164	0.72937049	0.038683309	0.065705667	0.69117215	0.35667106	-0.11726184	0.87277587	0.43242101	0.17758327	0.69633153	0.34158108	0.004530452	0.8419916	0.42628493	0.054131681	0.65897612	0.7472659	-0.099742505	0.7109704	0.77349146	0.24002458	0.74187959	0.79755714	-0.070183865	0.78536365	0.81895456	0.1707241	0.58078171	0.88826804	0.079818773	0.74241764	1.2963542	-0.10627801	0.73860615	1.2668229	0.25480079	0.66141255	1.324743	0.074444879	0.76506955	0.9698659	-0.16654588	0.61532663	0.97386224	0.30985773	0.97227571	0.84234079	-0.1226014	0.73158844	0.76410548	0.36025746
337	1.344	0.34023271	0.085379135	-0.041931155	0.91968042	0.035757645	0.10604213	0.3573719	0.21609093	-0.072101807	0.78330951	0.058527267	0.1276755	0.3828653	0.2169151	0.0091993267	0.80583652	0.082526963	0.042127499	0.32038428	0.27605882	-0.01843646	0.72935895	0.038778889	0.065722291	0.70349025	0.3596421	-0.11794833	0.87368094	0.43235101	0.17795451	0.70935665	0.3441977	0.0037531374	0.84352855	0.42679222	0.054587776	0.6659302	0.75014395	-0.099541972	0.71550351	0.77534383	0.2404369	0.74844875	0.80032083	-0.069637253	0.79072146	0.82125971	0.17187766	0.58670773	0.89064157	0.079791736	0.74743667	1.2990453	-0.10619114	0.74400957	1.2695826	0.25493184	0.66664189	1.3273051	0.07467141	0.7683379	0.97264935	-0.16595331	0.62304517	0.97554592	0.31061202	0.97358726	0.84149924	-0.12476498	0.74322842	0.76742504	0.35936386
